<svg xmlns="http://www.w3.org/2000/svg" viewBox="0 0 927 818" role="img" aria-label="Luna Marre bull and star logo"><path fill="#efd75e" d="M331 81 L325 79 L327 87 L346 132 L347 149 L345 154 L347 159 L347 167 L341 182 L333 194 L322 206 L312 213 L306 214 L291 209 L278 209 L264 212 L242 220 L233 220 L220 215 L205 213 L171 215 L166 214 L157 209 L141 193 L137 184 L136 177 L137 138 L140 121 L148 94 L146 91 L143 92 L131 104 L117 127 L106 149 L98 168 L97 179 L100 194 L111 228 L110 233 L103 237 L80 243 L71 249 L70 260 L81 267 L108 276 L132 295 L132 297 L121 316 L112 337 L100 359 L91 383 L87 405 L82 420 L79 435 L70 435 L70 438 L74 442 L72 450 L66 459 L56 483 L48 509 L47 521 L53 537 L52 543 L45 558 L42 573 L41 609 L33 656 L27 688 L19 716 L9 745 L1 779 L2 789 L7 799 L15 802 L41 799 L55 782 L64 768 L70 719 L82 705 L97 681 L104 661 L116 642 L130 627 L137 626 L155 629 L161 628 L177 636 L187 637 L200 633 L236 628 L254 624 L255 627 L247 649 L236 672 L228 686 L223 702 L222 721 L228 730 L228 740 L219 761 L208 801 L211 806 L250 818 L268 815 L284 815 L288 811 L287 798 L281 738 L285 709 L291 697 L300 687 L325 653 L337 636 L356 615 L365 611 L371 603 L397 580 L405 572 L411 560 L411 554 L431 535 L436 534 L459 568 L461 574 L458 601 L449 621 L412 684 L408 697 L410 706 L418 717 L426 718 L456 709 L466 697 L511 596 L526 556 L531 538 L532 529 L522 519 L523 518 L532 522 L569 550 L571 556 L569 591 L573 612 L574 630 L581 657 L590 674 L606 691 L617 695 L629 692 L637 686 L642 661 L642 639 L635 625 L624 608 L622 585 L617 564 L609 543 L600 499 L599 404 L603 405 L624 418 L641 424 L651 432 L662 450 L672 458 L674 455 L679 457 L676 453 L680 455 L680 452 L683 452 L680 449 L686 450 L682 447 L687 447 L682 444 L688 445 L653 424 L631 405 L619 389 L608 365 L594 328 L588 310 L581 299 L562 290 L539 283 L509 280 L489 275 L481 275 L450 284 L401 294 L371 299 L348 299 L344 298 L363 289 L379 276 L380 272 L358 250 L348 246 L349 243 L364 228 L376 210 L383 190 L385 177 L383 162 L375 140 L363 118 L348 98 L339 88 Z M698 0 L693 27 L692 86 L690 88 L679 87 L645 73 L603 53 L561 25 L550 18 L545 18 L548 24 L586 75 L622 121 L620 126 L581 134 L493 153 L455 164 L446 168 L449 169 L513 177 L615 191 L589 205 L511 235 L505 245 L620 242 L656 241 L657 243 L646 289 L637 332 L635 337 L636 338 L643 329 L699 258 L702 258 L712 300 L731 401 L736 424 L737 444 L740 454 L744 453 L748 444 L757 390 L783 298 L786 300 L820 356 L872 429 L876 437 L876 427 L869 389 L862 365 L848 336 L836 300 L830 255 L832 251 L868 262 L917 276 L923 276 L921 270 L889 224 L874 196 L875 191 L899 160 L927 139 L926 137 L844 157 L911 46 L887 56 L802 103 L830 9 L828 5 L820 9 L759 78 L746 86 L742 84 L717 41 Z"/></svg>
