<svg xmlns="http://www.w3.org/2000/svg" viewBox="0 0 927 818"><rect width="927" height="818" fill="#dd2d25"/><path fill="#efd75e" d="M331 81 L325 79 L327 87 L346 132 L347 149 L345 154 L347 159 L347 167 L341 182 L333 194 L322 206 L312 213 L306 214 L291 209 L278 209 L264 212 L242 220 L233 220 L220 215 L205 213 L171 215 L166 214 L157 209 L141 193 L137 184 L136 177 L137 138 L140 121 L148 94 L146 91 L143 92 L131 104 L117 127 L106 149 L98 170 L96 187 L99 202 L106 222 L111 231 L111 236 L104 241 L93 243 L76 250 L71 255 L71 261 L80 268 L103 275 L111 279 L129 292 L130 296 L119 324 L100 360 L93 380 L87 409 L77 432 L70 436 L73 441 L73 444 L59 469 L48 501 L47 522 L52 537 L47 546 L42 566 L42 605 L33 659 L26 691 L10 733 L1 770 L1 782 L3 788 L12 797 L26 799 L41 799 L54 783 L63 767 L68 718 L94 682 L100 665 L106 654 L116 640 L129 626 L138 625 L143 627 L161 627 L173 634 L179 636 L188 636 L199 632 L213 631 L253 623 L255 627 L248 646 L225 689 L223 699 L222 720 L228 730 L228 738 L218 763 L208 802 L213 807 L247 816 L254 816 L260 814 L278 814 L282 812 L287 805 L287 801 L284 790 L284 774 L280 751 L279 735 L285 703 L299 689 L333 640 L365 612 L369 611 L372 605 L406 573 L410 566 L411 555 L432 533 L435 533 L460 567 L459 597 L456 605 L438 634 L409 688 L409 701 L411 706 L418 715 L428 716 L455 707 L459 702 L470 680 L479 672 L516 592 L528 561 L531 548 L531 538 L528 529 L521 520 L522 518 L528 520 L540 528 L554 540 L565 547 L570 554 L571 565 L569 574 L569 600 L574 614 L575 626 L582 657 L590 671 L608 691 L615 694 L620 694 L629 691 L634 687 L636 683 L636 676 L642 646 L642 637 L640 630 L626 607 L623 599 L620 568 L609 542 L600 497 L598 480 L599 405 L602 403 L631 422 L647 428 L654 435 L663 452 L668 457 L670 453 L675 458 L676 457 L675 456 L678 454 L678 450 L681 448 L679 445 L680 444 L688 447 L682 441 L683 439 L687 440 L656 423 L621 391 L610 371 L603 352 L598 343 L582 300 L573 293 L541 282 L487 274 L457 282 L423 287 L371 298 L354 299 L344 297 L371 285 L377 280 L379 276 L378 272 L347 245 L363 229 L378 202 L383 185 L384 167 L378 141 L367 119 L350 97 L340 87 Z M547 17 L545 19 L575 64 L602 102 L621 124 L618 127 L480 155 L461 160 L447 166 L517 174 L541 179 L597 187 L612 191 L584 206 L513 239 L506 245 L608 243 L655 240 L656 243 L646 280 L643 303 L635 328 L635 336 L638 335 L659 305 L698 257 L700 257 L702 260 L704 273 L714 303 L729 386 L733 417 L737 433 L737 445 L739 451 L742 453 L744 450 L746 432 L751 415 L766 341 L780 301 L783 298 L812 351 L874 437 L875 429 L871 414 L867 386 L846 323 L833 261 L830 253 L833 250 L836 250 L910 273 L922 274 L906 244 L885 217 L873 195 L882 183 L925 138 L883 150 L848 157 L843 156 L910 46 L860 74 L802 103 L801 101 L816 46 L825 20 L828 5 L825 5 L809 20 L748 84 L745 85 L742 83 L716 39 L703 9 L696 1 L692 40 L692 77 L691 86 L689 88 L677 85 L642 70 L602 49 Z"/></svg>
